<svg width="23" height="23" viewBox="0 0 23 23" fill="none" xmlns="http://www.w3.org/2000/svg">
<path d="M9.64161 1.48865C9.15547 1.9719 9.16573 2.7607 9.66181 3.23414L15.7604 9.07594H1.21474C0.541526 9.07594 0 9.62044 0 10.2973V11.9258C0 12.6025 0.541526 13.1472 1.21474 13.1472H15.7604L9.66181 18.9891C9.17075 19.4623 9.1606 20.251 9.64161 20.7346L10.7652 21.8643C11.2357 22.3427 12.0049 22.3427 12.4808 21.8643L22.3196 11.9716C22.7953 11.4983 22.7953 10.7249 22.3196 10.2464L12.4808 0.35872C12.0101 -0.119573 11.2408 -0.119573 10.7652 0.35872L9.64161 1.48865Z" fill="#F9E5C3"/>
</svg>
