<svg width="60" height="67" viewBox="0 0 60 67" fill="none" xmlns="http://www.w3.org/2000/svg">
<g clip-path="url(#clip0_12318_24317)">
<g clip-path="url(#clip1_12318_24317)">
<g clip-path="url(#clip2_12318_24317)">
<mask id="mask0_12318_24317" style="mask-type:luminance" maskUnits="userSpaceOnUse" x="0" y="0" width="60" height="60">
<path d="M59.4671 0H0.162109V59.305H59.4671V0Z" fill="white"/>
</mask>
<g mask="url(#mask0_12318_24317)">
<path d="M38.1426 28.2857L41.1426 23.5714L45.4283 21.4286C45.9997 21.2857 47.2283 21.0857 47.5711 21.4286C47.914 21.7714 52.8569 28.4286 55.2854 31.7143L57.4283 35.5714C56.9997 36.4286 56.0569 38.2286 55.714 38.5714C55.3711 38.9143 52.1425 40.4286 50.5711 41.1429C49.714 41.2857 47.914 41.5714 47.5711 41.5714C47.2283 41.5714 43.1425 36.1429 41.1426 33.4286L38.8926 29.5714L38.1426 28.2857Z" fill="#FDC040"/>
<path d="M47.5723 41.5713C47.2294 41.5713 43.1437 36.1427 41.1437 33.4284L38.8937 29.5713H37.2866H33.0008C32.5723 29.5713 30.4294 30.4284 29.5723 30.857L27.0008 32.1427C26.1437 32.5713 25.2866 33.4284 24.858 33.857C24.4294 34.2856 23.5723 35.5713 23.5723 35.9999C23.5723 36.4284 23.5723 37.2856 24.0008 37.7141C24.4294 38.1427 25.2866 38.5713 25.7151 38.5713H28.2866C28.9723 38.5713 30.858 37.7141 31.7151 37.2856C32.0008 37.4285 32.658 37.7999 33.0008 38.1427C33.3437 38.4856 36.2865 40.5713 37.7151 41.5713L41.1437 44.9999C41.7152 45.2855 42.9437 45.7713 43.2866 45.4284C43.6294 45.0856 44.858 44.1427 45.4294 43.7141L46.7151 42.857L47.5723 41.5713Z" fill="#FDC040"/>
<path d="M13.2852 46.2859C13.2852 46.9716 14.428 48.2859 14.9994 48.8573L17.9994 51.4287L19.7137 52.7145L21.428 54.4287C21.9995 54.7144 23.1423 55.3716 23.1423 55.7145C23.1423 56.0573 24.8566 56.4287 25.7137 56.5716C26.1423 56.2859 27.0852 55.6287 27.428 55.2859C27.8566 54.8573 27.8566 54.8573 27.8566 54.0002C27.8566 53.143 27.8566 52.2859 27.428 51.4287C26.9994 50.5716 26.9994 48.8573 26.5709 48.4287C26.1423 48.0002 24.428 47.143 24.428 46.7145C24.428 46.2859 23.1423 44.5716 22.7137 44.143C22.2852 43.7145 21.428 42.0002 20.9994 41.5716C20.5709 41.143 19.2852 40.2859 18.428 40.7145C17.5709 41.143 14.9994 43.2859 14.5709 43.7145C14.228 44.0573 13.5708 45.5716 13.2852 46.2859Z" fill="#FDC040"/>
<path d="M21.4294 4.28564C24.0008 7.85708 31.3723 14.8285 40.2866 14.1428L38.5723 19.2856L36.0008 21.4285L27.858 23.9999L21.4294 21.8571L17.5723 14.9999L18.0008 9.4285L20.1437 5.57136L21.4294 4.28564Z" fill="#FDC040"/>
<path d="M28.8569 15.4068C28.4044 15.4068 27.8496 15.3406 27.4697 14.9173C27.3376 14.7686 27.2219 14.6296 27.1097 14.5138C26.2047 13.5615 24.6458 14.8843 25.5904 16.1209L25.8183 16.4152C25.9669 16.6006 26.2345 16.8154 26.6175 17.0602C26.9908 17.298 27.4069 17.47 27.8693 17.5726V19.2063C27.8693 19.7684 28.3282 20.2313 28.8899 20.2313C29.4547 20.2313 29.9335 19.7684 29.9335 19.2063V17.5627C30.6734 17.3909 31.3075 17.0303 31.826 16.4848C32.3476 15.939 32.6086 15.215 32.6086 14.3122C32.6086 13.6972 32.4899 13.1847 32.252 12.7712C32.0142 12.3611 31.7235 12.0736 31.3767 11.9114C31.0267 11.7493 30.6469 11.6071 30.2274 11.4849C29.8113 11.3626 29.4315 11.2765 29.0814 11.2237C28.7347 11.1739 28.444 11.068 28.2062 10.9128C27.9683 10.7539 27.8495 10.549 27.8495 10.2943C27.8495 9.0775 29.633 9.22622 30.4189 9.88759C31.5782 10.8631 32.876 9.0775 31.5319 8.06894L31.3766 7.92994C31.2709 7.84747 31.086 7.74484 30.8185 7.61581C30.5542 7.487 30.2569 7.39098 29.9334 7.32148V6.33287V5.90303C29.9334 5.34079 29.4742 4.87793 28.9095 4.87793C28.348 4.87793 27.8858 5.34068 27.8858 5.90303V7.30503C27.1326 7.45388 26.5084 7.82766 26.0759 8.37971C25.64 8.94199 25.4186 9.56376 25.4186 10.2579C25.4186 10.9558 25.5806 11.5278 25.9041 11.9809C26.2278 12.4336 26.6209 12.7512 27.0866 12.9364C27.5489 13.1217 28.0112 13.2706 28.4736 13.3795C28.9392 13.4921 29.3324 13.6143 29.6558 13.7566C29.9796 13.8954 30.1414 14.0906 30.1414 14.3452C30.1415 15.0528 29.7122 15.4068 28.8569 15.4068Z" fill="#3BB77E"/>
<path d="M58.2429 33.4572L48.7254 21.2663C48.0843 20.443 47.1123 19.9707 46.0589 19.9707C45.3153 19.9707 44.6114 20.2068 44.0207 20.655L37.792 25.403C37.079 25.9464 36.6235 26.7349 36.5094 27.6234C36.4923 27.7558 36.4843 27.8878 36.4829 28.0192C34.1083 27.8393 31.6557 28.0201 29.2739 29.5683L29.1671 29.6376L23.1418 28.7162C23.1541 28.5076 23.1475 28.2965 23.1199 28.0846C23.0051 27.1983 22.5504 26.4115 21.8388 25.869L15.6085 21.1253C14.1488 20.009 12.0383 20.2802 10.9033 21.7314L8.6344 24.6381C8.23732 25.1466 8.32789 25.8806 8.83642 26.2775C9.34497 26.6745 10.079 26.5839 10.476 26.0754L12.7441 23.1697C13.0875 22.7307 13.7493 22.6443 14.1913 22.9824L20.423 27.7272C20.6341 27.8881 20.7691 28.1217 20.8032 28.3851C20.8373 28.6488 20.7661 28.9099 20.6035 29.1187L11.0841 41.3116C10.7431 41.7496 10.0804 41.8351 9.63905 41.5005L3.41009 36.7519C3.19789 36.5903 3.06226 36.3558 3.02831 36.0921C2.99461 35.8296 3.06585 35.5703 3.22974 35.3609L4.84812 33.2876C5.24507 32.7791 5.15461 32.0451 4.646 31.6482C4.13751 31.251 3.40349 31.3417 3.00642 31.8503L1.38898 33.9223C0.837969 34.6267 0.597274 35.503 0.711251 36.3898C0.825344 37.278 1.28102 38.0666 1.99384 38.6099L8.2248 43.3601C8.8312 43.82 9.54785 44.0425 10.2598 44.0424C10.6716 44.0424 11.0813 43.9668 11.4676 43.8209L12.274 44.9253C11.8357 45.7248 11.7673 46.6854 12.1196 47.6123C12.6231 48.9377 13.8112 49.8362 15.0966 49.879C15.1364 50.0678 15.1916 50.2565 15.2671 50.4433C15.7852 51.7271 16.9682 52.6008 18.2395 52.6584C18.2453 52.6917 18.2497 52.7251 18.2565 52.7586C18.4984 53.934 19.4001 54.9378 20.5537 55.3159C20.8475 55.4123 21.1438 55.4617 21.4372 55.4705C21.5496 55.9437 21.7844 56.4008 22.1455 56.802C22.7083 57.4277 23.53 57.828 24.4314 57.8278C25.086 57.8278 25.7827 57.6154 26.4523 57.1259L27.775 58.3623C28.4487 58.991 29.2969 59.3049 30.1369 59.3049C30.9889 59.3048 31.8324 58.9818 32.4765 58.3371C32.8606 57.9527 33.1582 57.4953 33.3507 57.0138C33.6789 57.1135 33.9996 57.1608 34.3072 57.1608C35.1735 57.1607 35.938 56.7948 36.4857 56.2307C36.9339 55.7691 37.2547 55.1546 37.3966 54.4996C37.444 54.502 37.4914 54.504 37.539 54.5044C37.5507 54.5046 37.5621 54.5046 37.5738 54.5046C38.4952 54.5046 39.3792 54.1476 40.0035 53.5224C40.4409 53.0846 40.7418 52.5457 40.8854 51.9572C41.1083 52.0007 41.3321 52.0234 41.5554 52.0234C41.8365 52.0234 42.117 51.9885 42.3932 51.9177C43.5196 51.6291 44.3894 50.7487 44.6631 49.6202C44.9157 48.5789 44.6555 47.4819 43.947 46.4848C45.7814 45.0089 46.5235 44.2818 47.3615 42.9224C47.9339 43.3435 48.6307 43.5755 49.3672 43.5755C50.1129 43.5755 50.8182 43.3377 51.4045 42.8893L57.6373 38.1438C58.3483 37.6018 58.8031 36.8152 58.918 35.9287C59.0329 35.0415 58.7935 34.164 58.2429 33.4572ZM15.7076 47.3033C15.5287 47.4649 15.3552 47.547 15.1918 47.547C14.8563 47.547 14.4662 47.2114 14.3034 46.7827C14.1555 46.3934 14.2244 46.0681 14.5089 45.8155L14.5127 45.8123L14.5162 45.8092L18.4514 42.3114C18.7807 42.0193 19.1119 41.865 19.4097 41.865C19.8455 41.865 20.1713 42.1958 20.2896 42.5035C20.4161 42.8321 20.34 43.1253 20.0647 43.3742L19.3788 43.9928L19.377 43.9944C19.3735 43.9974 19.3704 44.0004 19.3669 44.0034C19.3424 44.0256 19.3171 44.0485 19.292 44.0712L15.7076 47.3033ZM18.8885 50.0952C18.7111 50.2518 18.5421 50.3278 18.3721 50.3278C18.0175 50.3278 17.6053 49.9946 17.4336 49.5689C17.2442 49.1 17.4689 48.8835 17.5399 48.8149C17.5855 48.7712 17.6403 48.7187 17.6974 48.6576L17.6984 48.6566L17.7105 48.646C17.9352 48.4452 19.9139 46.6574 20.8593 45.8032L20.9298 45.7397C21.2502 45.4584 21.5747 45.3098 21.8688 45.3098C22.3326 45.3098 22.6778 45.6648 22.8024 45.9944C22.9262 46.3222 22.8519 46.6091 22.5825 46.8463L22.3402 47.0594C22.3384 47.061 22.3366 47.0623 22.3349 47.064L22.3332 47.0657L18.8885 50.0952ZM22.3701 52.6164C22.354 52.6308 22.3388 52.646 22.3232 52.6608L22.0491 52.9081C21.8055 53.1282 21.5616 53.1882 21.2813 53.0962C20.9269 52.98 20.6175 52.64 20.545 52.2879C20.4819 51.9817 20.6045 51.698 20.9156 51.4237L21.3054 51.0832C21.3152 51.0746 21.3237 51.0652 21.3332 51.0564L23.8863 48.8111C24.4981 48.2702 25.1041 48.216 25.5073 48.6669C25.5641 48.7304 26.045 49.3021 25.4579 49.8325L23.8899 51.2474C23.8731 51.2622 23.8561 51.2755 23.8394 51.2907C23.8335 51.2962 23.8286 51.3024 23.8228 51.3078L22.388 52.6024C22.3823 52.6074 22.3758 52.6112 22.3701 52.6164ZM23.8824 55.2395C23.7593 55.1028 23.5218 54.7485 23.9113 54.3744L25.4755 52.963C25.5939 52.8618 25.708 52.7814 25.8148 52.7263C25.8196 52.7238 25.8247 52.7212 25.8295 52.7187C26.46 52.3819 26.8016 52.7745 26.8915 52.9027C27.007 53.0676 27.1478 53.3916 26.7937 53.7097L25.7221 54.673C25.718 54.6766 25.7141 54.6803 25.7101 54.6839L25.2455 55.1014C24.482 55.7867 24.0091 55.3806 23.8824 55.2395ZM42.3927 49.0696C42.3209 49.3655 42.1098 49.5787 41.8134 49.6548C41.322 49.7805 40.7 49.5077 40.1305 48.9234C40.0879 48.8761 40.0441 48.8296 39.9983 48.7845L35.5891 44.426C35.1301 43.9727 34.3906 43.9769 33.9372 44.4357C33.4837 44.8944 33.4879 45.6341 33.9466 46.0875L38.3487 50.4389C38.3561 50.4467 38.3635 50.4543 38.3707 50.4621C38.5466 50.643 38.6444 50.8846 38.6455 51.1462C38.6466 51.4224 38.5418 51.68 38.3505 51.8716C38.1618 52.0607 37.8795 52.1685 37.5745 52.1685C37.5702 52.1685 37.566 52.1685 37.5617 52.1683C37.2916 52.1658 37.0451 52.0753 36.8716 51.9174C36.7985 51.823 36.7189 51.7314 36.6314 51.6435L33.4081 48.4162C32.9521 47.9599 32.2125 47.9594 31.7561 48.4152C31.2997 48.871 31.2992 49.6105 31.755 50.067L34.8119 53.1276C34.8487 53.1816 34.8896 53.2335 34.9366 53.2821L35.0667 53.4162C35.2343 53.7354 35.1304 54.273 34.8096 54.6036C34.3145 55.1134 33.6177 54.6639 33.1213 54.1977L31.7409 52.8982C31.2712 52.456 30.5318 52.4784 30.0897 52.948C29.6475 53.4178 29.6698 54.1571 30.1395 54.5993L31.194 55.5918C31.1966 55.5942 31.1987 55.5969 31.2013 55.5992C31.2253 55.6218 31.2616 55.6558 31.2634 55.7736C31.2679 56.0473 31.0872 56.4227 30.8239 56.6862C30.4395 57.0708 29.8005 57.0571 29.3697 56.655L28.2138 55.5746L28.355 55.4475C29.5013 54.4182 29.6863 52.8209 28.8049 51.5627C28.5181 51.1532 28.1589 50.8351 27.756 50.6144C28.324 49.4942 28.1652 48.1341 27.2484 47.1094C26.7313 46.5312 26.0007 46.1363 25.1852 46.0488C25.1619 45.7558 25.0978 45.4604 24.9878 45.1692C24.5911 44.1186 23.709 43.3453 22.6709 43.0776C22.7141 42.6121 22.6498 42.1317 22.4701 41.6643C21.9784 40.3871 20.7487 39.5287 19.4098 39.5287C18.5318 39.5287 17.6645 39.8866 16.9005 40.5642L13.9182 43.2151L13.2626 42.3174L22.1545 30.9285L26.2198 31.5503L25.6048 31.9493C22.3105 34.0866 22.0694 36.5722 22.9423 38.1858C23.6409 39.4775 25.0351 40.2157 26.5151 40.2157C27.1243 40.2156 27.7484 40.0905 28.3441 39.8273C28.3599 39.8202 28.3755 39.813 28.3909 39.8053L31.4706 38.2783L33.2484 39.8971C33.2502 39.8987 33.252 39.8999 33.2536 39.9014C33.2553 39.903 33.2568 39.9046 33.2585 39.9062L41.4757 47.2142C42.1798 47.8403 42.5227 48.5339 42.3927 49.0696ZM42.2945 44.8162L34.8161 38.1652L32.4531 36.0138C32.0973 35.6896 31.5789 35.6169 31.1479 35.8308L27.3782 37.7C26.3541 38.1405 25.3467 37.7214 24.9969 37.0746C24.5162 36.186 25.2362 34.973 26.8761 33.9092L30.5462 31.5276C32.5362 30.234 34.6237 30.1343 37.4792 30.4656L45.7477 41.0603C44.8752 42.6272 44.4118 43.1246 42.2945 44.8162ZM56.6011 35.6284C56.5671 35.8914 56.432 36.1249 56.2214 36.2855L49.9873 41.0321C49.7634 41.2034 49.5266 41.2393 49.3675 41.2393C49.0398 41.2392 48.7389 41.095 48.543 40.8444L39.027 28.6514C38.8638 28.4428 38.7926 28.1835 38.8264 27.921C38.8603 27.6572 38.9958 27.4226 39.2082 27.2609L45.435 22.5142C45.6609 22.3429 45.8988 22.3069 46.0587 22.3069C46.3867 22.3069 46.6868 22.4507 46.883 22.7026L56.4006 34.8936C56.5641 35.1037 56.6354 35.3646 56.6011 35.6284Z" fill="#3BB77E"/>
<path d="M22.9602 23.7293C24.7941 24.7189 26.8658 25.2419 28.9512 25.2419C35.9035 25.2419 41.5598 19.5794 41.5598 12.6192C41.5598 7.76155 38.7238 3.28193 34.3358 1.20706C32.6455 0.406101 30.8338 0 28.9512 0C22.0004 0 16.3457 5.66097 16.3457 12.6192C16.3457 17.2601 18.8795 21.5169 22.9602 23.7293ZM28.9512 2.33607C30.485 2.33607 31.9602 2.66653 33.3363 3.31842C36.9126 5.00943 39.2235 8.66031 39.2235 12.6192C39.2235 18.2913 34.6154 22.9059 28.9513 22.9059C27.2518 22.9059 25.5638 22.4796 24.0717 21.6746C20.7471 19.8719 18.6818 16.4021 18.6818 12.6192C18.6818 6.94911 23.2886 2.33607 28.9512 2.33607Z" fill="#3BB77E"/>
<path d="M6.01179 29.874C6.22688 30.0457 6.48415 30.1291 6.73966 30.1291C7.08276 30.1291 7.42272 29.9786 7.65333 29.6895L7.66654 29.673C8.06894 29.1688 7.98634 28.4338 7.48214 28.0314C6.97793 27.6293 6.24287 27.7115 5.8406 28.2159L5.82739 28.2325C5.42499 28.7367 5.50758 29.4716 6.01179 29.874Z" fill="#3BB77E"/>
</g>
</g>
</g>
</g>
<defs>
<clipPath id="clip0_12318_24317">
<rect width="60" height="60" fill="white"/>
</clipPath>
<clipPath id="clip1_12318_24317">
<rect width="60" height="60" fill="white"/>
</clipPath>
<clipPath id="clip2_12318_24317">
<rect width="60" height="60" fill="white"/>
</clipPath>
</defs>
</svg>
