<svg width="16" height="16" viewBox="0 0 16 16" fill="none" xmlns="http://www.w3.org/2000/svg">
<path d="M5.32078 6.42487C5.7112 7.11646 6.18806 7.74391 6.75137 8.30722C7.31468 8.87053 7.94213 9.3474 8.63373 9.73781L9.36993 8.70042C9.49264 8.52195 9.65717 8.4104 9.86353 8.36578C10.0699 8.32116 10.2679 8.34905 10.4575 8.44944C11.6511 9.10757 12.9283 9.48683 14.2892 9.58722C14.5011 9.60953 14.6824 9.69877 14.8329 9.85493C14.9835 10.0111 15.0588 10.2007 15.0588 10.4238V14.1551C15.0588 14.367 14.9863 14.5538 14.8413 14.7156C14.6963 14.8773 14.5178 14.9694 14.3059 14.9917C13.8597 15.0363 13.4135 15.0586 12.9673 15.0586C11.2049 15.0586 9.52052 14.7184 7.91425 14.0379C6.36375 13.3798 4.99172 12.454 3.79817 11.2604C2.60462 10.0669 1.67878 8.69485 1.02065 7.14435C0.340218 5.53807 0 3.85371 0 2.09127C0 1.64509 0.0223094 1.1989 0.0669281 0.752711C0.0892375 0.540772 0.181264 0.362298 0.343007 0.217287C0.504749 0.0722761 0.69159 -0.000229836 0.903529 -0.000229836H4.63477C4.85786 -0.000229836 5.04749 0.0750647 5.20366 0.225653C5.35983 0.376241 5.44906 0.557505 5.47137 0.769444C5.57176 2.13031 5.95102 3.40753 6.60915 4.60108C6.70954 4.79071 6.73743 4.9887 6.69281 5.19506C6.64819 5.40143 6.53664 5.56596 6.35817 5.68866L5.32078 6.42487ZM3.21255 5.87271L4.80209 4.73493C4.3559 3.76448 4.04915 2.74382 3.88183 1.67297H1.6732V2.09127C1.6732 3.61947 1.9688 5.08631 2.56 6.4918C3.12889 7.84151 3.93481 9.03785 4.97778 10.0808C6.02074 11.1238 7.21708 11.9297 8.5668 12.4986C9.97229 13.0898 11.4391 13.3854 12.9673 13.3854H13.3856V11.1768C12.3148 11.0094 11.2941 10.7027 10.3237 10.2565L9.18588 11.846C8.72854 11.6676 8.28235 11.4556 7.84732 11.2102L7.79712 11.1935C6.98283 10.725 6.24105 10.1561 5.57176 9.48683C4.90248 8.81755 4.33359 8.07576 3.8651 7.26147L3.84837 7.21127C3.60296 6.77624 3.39102 6.33005 3.21255 5.87271Z" fill="currentColor"/>
</svg>
