<svg width="19" height="16" viewBox="0 0 19 16" fill="none" xmlns="http://www.w3.org/2000/svg">
<path d="M17.5686 -0.000229836C17.8029 -0.000229836 18.0009 0.0806417 18.1626 0.242385C18.3244 0.404128 18.4052 0.602123 18.4052 0.836371V14.222C18.4052 14.4562 18.3244 14.6542 18.1626 14.816C18.0009 14.9777 17.8029 15.0586 17.5686 15.0586H2.5098C2.27556 15.0586 2.07756 14.9777 1.91582 14.816C1.75407 14.6542 1.6732 14.4562 1.6732 14.222V13.3854H16.732V3.59716L10.0392 9.62069L1.6732 2.09127V0.836371C1.6732 0.602123 1.75407 0.404128 1.91582 0.242385C2.07756 0.0806417 2.27556 -0.000229836 2.5098 -0.000229836H17.5686ZM6.69281 10.039V11.7122H0V10.039H6.69281ZM4.18301 5.85598V7.52918H0V5.85598H4.18301ZM16.3639 1.67297H3.71451L10.0392 7.36186L16.3639 1.67297Z" fill="currentColor"/>
</svg>
